<svg width="61" height="54" viewBox="0 0 61 54" fill="none" xmlns="http://www.w3.org/2000/svg">
<path d="M12.7083 24.75L16.5208 14.625H44.4792L48.2917 24.75M44.4792 36C43.468 36 42.4983 35.6444 41.7833 35.0115C41.0683 34.3786 40.6667 33.5201 40.6667 32.625C40.6667 31.7299 41.0683 30.8714 41.7833 30.2385C42.4983 29.6056 43.468 29.25 44.4792 29.25C45.4903 29.25 46.46 29.6056 47.175 30.2385C47.89 30.8714 48.2917 31.7299 48.2917 32.625C48.2917 33.5201 47.89 34.3786 47.175 35.0115C46.46 35.6444 45.4903 36 44.4792 36ZM16.5208 36C15.5097 36 14.54 35.6444 13.825 35.0115C13.11 34.3786 12.7083 33.5201 12.7083 32.625C12.7083 31.7299 13.11 30.8714 13.825 30.2385C14.54 29.6056 15.5097 29.25 16.5208 29.25C17.532 29.25 18.5017 29.6056 19.2167 30.2385C19.9317 30.8714 20.3333 31.7299 20.3333 32.625C20.3333 33.5201 19.9317 34.3786 19.2167 35.0115C18.5017 35.6444 17.532 36 16.5208 36ZM48.0883 13.5C47.58 12.195 46.1567 11.25 44.4792 11.25H16.5208C14.8433 11.25 13.42 12.195 12.9117 13.5L7.625 27V45C7.625 45.5967 7.89278 46.169 8.36944 46.591C8.84609 47.0129 9.49257 47.25 10.1667 47.25H12.7083C13.3824 47.25 14.0289 47.0129 14.5056 46.591C14.9822 46.169 15.25 45.5967 15.25 45V42.75H45.75V45C45.75 45.5967 46.0178 46.169 46.4944 46.591C46.9711 47.0129 47.6176 47.25 48.2917 47.25H50.8333C51.5074 47.25 52.1539 47.0129 52.6306 46.591C53.1072 46.169 53.375 45.5967 53.375 45V27L48.0883 13.5Z" fill="black"/>
</svg>
